PathFileType	4	(X/Y/Z)	Patient4_TMGait_0pt7_01_left_40.trc.trc
DataRate	CameraRate	NumFrames	NumMarkers	Units	OrigDataRate	OrigDataStartFrame	OrigNumFrames
84.848484848485	84.848484848485	5	33	mm	84.848484848485	53	       141
Frame#	Time	Sacral			L.Shoulder			Chest			R.Shoulder			Neck			R.ASIS			L.ASIS			R.Thigh.Superior			R.Thigh.Lateral			R.Thigh.Inferior			R.Patella			L.Thigh.Superior			L.Thigh.Lateral			L.Thigh.Inferior			L.Patella			L.Shank.Superior			L.Shank.Lateral			L.Shank.Inferior			R.Shank.Superior			R.Shank.Lateral			R.Shank.Inferior			R.Heel			R.Midfoot.Superior			R.Midfoot.Lateral			R.Toe			L.Heel			L.Midfoot.Lateral			L.Midfoot.Superior			L.Toe			L.Elbow			L.Wrist			R.Elbow			R.Wrist			
		X1	Y1	Z1	X2	Y2	Z2	X3	Y3	Z3	X4	Y4	Z4	X5	Y5	Z5	X6	Y6	Z6	X7	Y7	Z7	X8	Y8	Z8	X9	Y9	Z9	X10	Y10	Z10	X11	Y11	Z11	X12	Y12	Z12	X13	Y13	Z13	X14	Y14	Z14	X15	Y15	Z15	X16	Y16	Z16	X17	Y17	Z17	X18	Y18	Z18	X19	Y19	Z19	X20	Y20	Z20	X21	Y21	Z21	X22	Y22	Z22	X23	Y23	Z23	X24	Y24	Z24	X25	Y25	Z25	X26	Y26	Z26	X27	Y27	Z27	X28	Y28	Z28	X29	Y29	Z29	X30	Y30	Z30	X31	Y31	Z31	X32	Y32	Z32	X33	Y33	Z33	

53	46.902857142857	838.136765604183	1016.267959263834	404.433208056064	1046.590852970948	1431.237833556967	218.083601610727	1140.788219720902	1357.589686080837	383.896529609701	1057.434908771582	1441.929020285084	553.577077712883	1050.116615073462	1496.068357837901	371.821099993588	1058.427267374002	950.244989838496	529.436049879737	1056.614770344072	961.342079366958	255.100705924498	1147.767760122217	788.303938423690	499.553519024470	1115.296772292744	666.389755533129	574.233465352124	1206.648697064804	631.356837187044	494.925512774482	1231.736836907066	518.960277947341	517.827949727574	1102.306471508787	752.149563719230	286.001190820844	1012.623305522483	638.554894492419	226.890491849175	1093.500244807184	559.793312875015	293.243251513268	1091.988130793617	490.728713082024	304.097329892120	1066.275900905866	419.307779159909	294.981416458768	978.435602615461	304.107742193552	243.724629115739	1027.721093146915	194.015966452295	317.185325812295	1159.083521801062	440.760303960518	525.157691555836	1039.508569548408	395.063835985335	583.890550006090	1031.717740642089	285.187371130763	536.173297512307	835.801015558910	216.449871418307	505.521129757411	1004.765135104293	160.502549005739	550.507117437134	894.343707358278	158.544878143516	580.334443204214	1069.164090795496	48.525718448899	577.676996124578	899.706268649873	38.149974247437	359.697643634399	973.784662216578	35.360852333583	278.813332984336	1056.308181231209	96.645770480965	306.036693148400	1185.506930172854	45.046544697894	277.561197622932	1000.128981794243	1086.260506058575	92.373697163996	1157.869928019510	876.920368242708	98.446647405419	1022.261401757758	1093.990434020323	672.963529620034	1185.724507365866	893.335313883469	653.155398516074	
54	46.914642857143	836.736838270068	1016.370824594222	402.747197017478	1047.206149056164	1431.739600053023	218.138193359034	1139.940393148091	1357.700440308518	384.592744890582	1055.243535091128	1441.637251910007	553.801199403777	1049.492185453968	1496.249210424106	372.041677911528	1056.419912286405	951.094828464289	529.215885545604	1056.104709524361	961.488870540625	254.801174129596	1147.824566941386	791.714897210587	499.287691928359	1117.594807206853	669.582742266494	574.479103433325	1209.177176062551	635.811984857430	494.949608220415	1236.964865708450	524.811136994153	518.287773872783	1099.829268243655	751.213544429026	286.275978895306	1009.294430170341	638.391430304913	226.551135597910	1088.888379808851	558.840720538928	293.396859528987	1086.539839533906	489.846306994880	304.352897466817	1060.531653191688	418.629368134454	295.111858601214	972.145797947823	303.982537975298	243.617766049382	1020.158298520964	193.583308943465	317.368973770648	1167.580356296950	444.315449611956	525.878812578338	1050.712736147446	392.851028979667	585.040615318157	1048.103081104394	282.676762858566	537.344439850257	855.657461939788	204.121716823672	507.409054250348	1027.580754715808	157.090230232279	552.120056779618	917.356538438530	149.305211321145	581.982081408204	1097.578027506483	48.410929657781	578.916227999122	891.381613349037	38.155959366111	359.655983178034	965.496111737194	35.356826231609	278.800986789548	1048.071937836112	96.572610565339	306.111446636019	1177.268195242669	44.861681895337	277.561489082071	1006.788798247285	1087.039390680665	89.950538070381	1175.644871226363	886.839274054519	97.389005111770	1015.278267223376	1093.745599934036	672.867145114290	1161.365597433453	878.921475826758	661.304842280593	
55	46.926428571429	835.442807445247	1016.431232446476	401.164232251053	1047.867452417700	1432.206741099113	218.313075741470	1139.163921312905	1357.756356602318	385.378956443948	1053.166973505044	1441.305170471356	554.107813481535	1048.883668531874	1496.389290865489	372.362942665531	1054.473358370484	951.801825561964	529.124699066728	1055.673495832780	961.578356577842	254.627147360198	1147.600438769831	794.655392782743	499.308780113141	1119.168663838812	672.350074119050	574.912346992803	1210.946736559644	639.656379732764	495.269858410317	1241.212249485202	530.288959388317	519.049183939563	1097.337082258107	750.231372347165	286.723509923408	1005.953550882523	638.207172171071	226.269475057149	1084.175348427973	557.856149077268	293.624350695514	1080.962233267624	488.961756459123	304.658195713681	1054.688262676100	417.953537580275	295.275239408476	965.794812182356	303.844840341678	243.518280644746	1012.573247843901	193.160093341597	317.553647845580	1175.431315203973	447.586567040087	526.824532148444	1061.786473650996	390.055945307342	586.414800268838	1064.826621561121	279.857076282905	538.697834411973	876.740664231212	190.980546538465	509.379088126872	1051.244365104019	153.553439752915	553.859297305022	941.570650223051	139.622686871105	583.738740695042	1127.027903112499	48.722612761336	580.359415675157	883.063937462071	38.162093689874	359.610878803228	957.205727412933	35.350137502312	278.790743014592	1039.835997408204	96.499350296150	306.187343856232	1169.025991223773	44.674687981618	277.570358307918	1013.409242870919	1087.974909702345	87.682331097090	1192.783508457392	897.515750521053	96.746006678556	1008.566942176040	1093.553897312744	672.745334560047	1136.386319739613	866.515521793402	669.242086094019	
56	46.938214285714	834.262116817315	1016.454798356461	399.696988452222	1048.568372535226	1432.628189643528	218.612704785590	1138.467112647219	1357.748135323743	386.253599149406	1051.228365715285	1440.934855687860	554.498246632908	1048.309999174369	1496.483221455935	372.785111126317	1052.603385856414	952.340911169519	529.155566757539	1055.314515545789	961.602140160889	254.581681162163	1147.086791992178	797.065667478828	499.592465138929	1119.984196837295	674.609685409523	575.519108549524	1211.951230359710	642.813060977658	495.893060835954	1244.447924089912	535.298520960119	520.092436486368	1094.829727743514	749.207190793091	287.319096311426	1002.572785954195	638.012382914095	226.041206269497	1079.332915788619	556.843466607662	293.898868601221	1075.231254381645	488.087289898272	304.985485963428	1048.723429050495	417.293477863469	295.451577488004	959.360568983420	303.700923957562	243.412143277091	1004.969983704660	192.757336666873	317.722094377984	1182.588565547912	450.547190507971	527.970023147690	1072.709134866782	386.767177762374	587.986798013721	1081.799495726433	276.887844602491	540.207143050438	899.037909311388	177.352752630227	511.399147185789	1075.600791330700	150.133036804059	555.676088195703	966.904752884323	129.813617340797	585.572275925810	1157.250576110811	49.751922631654	581.943843870811	874.756833426918	38.171231755800	359.559561898099	948.914619464214	35.340701419904	278.781168137672	1031.601301956679	96.424902352406	306.259395615796	1160.781233473889	44.480205715957	277.587314225554	1019.989784320229	1089.045619252885	85.585846739898	1209.217633968262	908.871033792305	96.510999585933	1001.995586873016	1093.451477050128	672.616486790493	1111.182595416536	856.286494394811	676.781648178406	
57	46.950000000000	833.204521500072	1016.442949168450	398.358898656610	1049.298427468112	1432.990834530801	219.040038416226	1137.857363643210	1357.667115332509	387.211995496937	1049.453266013098	1440.530289895020	554.973997572361	1047.790183584081	1496.522514192128	373.308490691030	1050.831917729357	952.693986778887	529.303453270065	1055.024748263193	961.550233788123	254.667972583681	1146.278136408373	798.893260529993	500.112678023948	1120.020888408731	676.289346776686	576.283172284882	1212.197238011571	645.219893173712	496.815532205290	1246.659798406207	539.753882485375	521.382813582705	1092.306939426402	748.144607592031	288.033089585380	999.124227932045	637.819179328042	225.861253573982	1074.337226949305	555.808798893977	294.192532448967	1069.329375274311	487.234977434707	305.304090612776	1042.618671441538	416.663284641981	295.618969378832	952.820445986244	303.559558067588	243.285840654018	997.348574943373	192.385793378719	317.857492563783	1189.013761108676	453.173891810580	529.283824006849	1083.447208896078	383.078861066485	589.723472341925	1098.909750897342	273.921742175572	541.843408361210	922.481595250153	163.560878413679	513.442791464590	1100.466893216182	147.058872309114	557.531502573623	993.229975026915	120.178333866913	587.451321549924	1187.954916268966	51.752692228062	583.606645339545	866.461796979823	38.187298179600	359.500426645834	940.623685768791	35.328464459454	278.771118169176	1023.368443156730	96.348270683908	306.321619617602	1152.534408379258	44.274091377157	277.611162385120	1026.526467824109	1090.223299257666	83.679721261991	1224.889323155667	920.815376887599	96.675042072958	995.433739853265	1093.490698012532	672.521719583592	1086.174346893297	848.307557660529	683.755133715108	
